<svg width="599" height="328" viewBox="0 0 599 328" fill="none" xmlns="http://www.w3.org/2000/svg">
<path d="M135.641 0.851562C150.94 0.851562 165.914 3.45573 180.562 8.66406C195.211 13.8724 208.395 21.5221 220.113 31.6133C232.158 41.7044 241.598 53.9115 248.434 68.2344C255.595 82.2318 259.176 98.3451 259.176 116.574C259.176 138.71 253.479 158.404 242.086 175.656C231.018 192.583 216.207 205.93 197.652 215.695C179.098 225.461 158.915 230.344 137.105 230.344C122.457 230.344 109.273 228.879 97.5547 225.949C85.8359 223.02 76.0703 219.602 68.2578 215.695V328H0.386719V0.851562H135.641ZM68.2578 64.3281V161.008C75.4193 163.938 84.0456 166.542 94.1367 168.82C104.553 170.773 115.133 171.75 125.875 171.75C145.406 171.75 160.868 166.379 172.262 155.637C183.98 144.569 189.84 131.548 189.84 116.574C189.84 99.3216 183.329 86.3008 170.309 77.5117C157.288 68.7227 141.988 64.3281 124.41 64.3281H68.2578ZM460.348 0.851562C475.647 0.851562 490.621 2.96745 505.27 7.19922C519.918 11.431 533.102 17.9414 544.82 26.7305C556.865 35.5195 566.305 46.5872 573.141 59.9336C580.302 72.9544 583.883 88.5794 583.883 106.809C583.883 126.014 579 142.616 569.234 156.613C559.794 170.285 547.262 181.027 531.637 188.84C516.012 196.327 499.085 200.721 480.855 202.023L598.531 328H509.176L395.406 194.211V328H327.535V0.851562H460.348ZM395.406 64.3281V146.848C403.219 149.452 411.845 151.568 421.285 153.195C431.051 154.497 440.816 155.148 450.582 155.148C470.113 155.148 485.576 151.242 496.969 143.43C508.688 135.292 514.547 123.898 514.547 109.25C514.547 93.2995 508.362 81.9062 495.992 75.0703C483.948 67.9089 469.137 64.3281 451.559 64.3281H395.406Z" fill="#01672C"/>
</svg>
