<?xml version="1.0" encoding="UTF-8" standalone="no"?>
<!-- Created with Inkscape (http://www.inkscape.org/) -->

<svg
   width="339.7439mm"
   height="88.679245mm"
   viewBox="0 0 339.7439 88.679245"
   version="1.1"
   id="svg5"
   xml:space="preserve"
   xmlns:inkscape="http://www.inkscape.org/namespaces/inkscape"
   xmlns:sodipodi="http://sodipodi.sourceforge.net/DTD/sodipodi-0.dtd"
   xmlns="http://www.w3.org/2000/svg"
   xmlns:svg="http://www.w3.org/2000/svg"><sodipodi:namedview
     id="namedview7"
     pagecolor="#505050"
     bordercolor="#eeeeee"
     borderopacity="1"
     inkscape:showpageshadow="0"
     inkscape:pageopacity="0"
     inkscape:pagecheckerboard="0"
     inkscape:deskcolor="#505050"
     inkscape:document-units="mm"
     showgrid="false" /><defs
     id="defs2" /><g
     inkscape:label="Warstwa 1"
     inkscape:groupmode="layer"
     id="layer1"
     transform="translate(109.09961,-50.553477)"><path
       style="fill:#000000;stroke-width:0.352778"
       d="m 29.869265,138.6028 c -2.300492,-1.80957 -2.587872,-6.61512 -0.783019,-13.09351 1.702605,-6.11138 1.593236,-6.91167 -0.85949,-6.2891 -1.346398,0.34175 -1.688437,0.28806 -3.216917,-0.50494 -1.668399,-0.8656 -1.724307,-0.87104 -2.28032,-0.22166 -1.091996,1.27536 -2.868729,0.72521 -4.10191,-1.27012 -0.929541,-1.50403 -1.44296,-1.54933 -2.556796,-0.22561 -2.195932,2.60972 -5.505228,2.29043 -7.4998165,-0.7236 -1.126419,-1.70213 -1.039018,-1.71704 -3.482678,0.59379 -3.29007,3.11122 -6.936532,2.61991 -8.360922,-1.12652 -0.291529,-0.76677 -1.385881,-1.17144 -1.385881,-0.51247 0,0.60612 -3.028636,3.72389 -4.562136,4.69641 -1.7439745,1.10599 -4.8194375,1.3777 -6.2427905,0.55153 -0.412916,-0.23967 -1.066779,-0.62865 -1.453028,-0.86439 -0.599758,-0.36605 -0.902138,-0.27737 -2.071465,0.60755 -4.381497,3.31579 -8.885948,-0.32908 -7.741681,-6.26435 0.567771,-2.945 -1.723295,-0.89812 -5.1349,4.58761 -2.198345,3.53486 -2.912014,4.09998 -4.632194,3.66804 -1.821607,-0.45741 -2.137022,-1.02813 -2.587678,-4.68224 -1.135521,-9.20725 -4.509703,-7.75512 -5.650911,2.43196 -0.387661,3.46047 -1.313364,4.35957 -3.474674,3.37481 -1.966754,-0.89611 -0.555441,-10.37296 2.054316,-13.79459 3.554364,-4.66008 10.805475,-2.64467 10.805475,3.00334 0,1.14315 1.095667,1.17651 1.878912,0.0572 6.211947,-8.87723 13.294943,-7.5795 11.504154,2.10777 -0.498951,2.69906 -0.14352,3.18548 1.77655,2.43126 1.454235,-0.57125 1.761423,-1.08385 2.465677,-4.11452 0.796174,-3.42624 1.72392,-4.6908 4.012255,-5.46891 5.6177595,-1.91024 5.8810165,5.21818 0.279703,7.57372 -1.43105,0.60181 -0.998336,1.55857 0.704893,1.55857 1.056026,0 2.209334,-0.99383 6.2460255,-5.38234 4.326967,-4.70409 6.43300102,-4.26551 7.635014,1.58998 0.264481,1.2884 0.635279,1.22798 2.592553,-0.42241 3.485265,-2.93882 8.1764865,-3.07136 8.1764865,-0.23102 0,1.38929 0.920518,1.7699 2.15034,0.88913 2.581892,-1.84911 5.064527,-2.313 6.513484,-1.21706 1.268268,0.95927 1.632063,0.68776 1.375036,-1.02622 -0.298626,-1.99139 0.839043,-3.37228 2.778298,-3.37228 1.7881,0 2.175898,0.71183 2.175898,3.99399 0,3.23383 0.469181,3.80148 1.58247,1.91459 0.390299,-0.66151 1.104092,-1.41384 1.586209,-1.67187 0.959672,-0.5136 1.070183,-0.77191 1.415817,-3.3094 0.55524,-4.07633 4.656307,-4.68689 5.798668,-0.8633 0.60935,2.03955 1.652094,4.05417 2.955572,5.71027 1.786569,2.26988 1.820411,6.69351 0.0546,7.1367 -1.783655,0.44767 -3.088132,-0.49143 -2.839805,-2.04439 0.236474,-1.47883 -0.232251,-2.7527 -1.012864,-2.7527 -0.705594,0 -1.054269,3.93211 -0.577416,6.51165 1.069905,5.78764 -1.124758,15.80338 -3.675345,16.77311 -1.238927,0.47104 -1.356504,0.45524 -2.333769,-0.31347 z m -88.319775,-8.49675 c -0.557434,-0.90194 -0.883419,-7.16713 -0.885853,-17.02546 -0.0027,-10.8412 -0.0027,-10.8412 -0.884622,-11.06255 -1.106082,-0.27761 -1.119896,-0.62875 -0.04403,-1.11895 0.803317,-0.36602 0.848525,-0.58321 1.094821,-5.260096 0.468397,-8.8943 1.299785,-11.75748 3.414046,-11.75748 1.229335,0 2.472877,1.6074 2.251558,2.91037 -0.164575,0.96891 -0.88137,10.46491 -0.892076,11.8181 -0.01859,2.349246 10.369966,-4.24599 15.956668,-10.13019 9.073568,-9.55676 10.267661,-14.24525 4.975761,-19.53692 -3.782932,-3.78276 -12.636811,-4.22833 -21.052938,-1.05947 -10.961759,4.12734 -24.617994,11.24329 -30.993855,16.15018 -0.521605,0.40143 -1.71223,1.19954 -2.645833,1.77358 -0.933603,0.57404 -2.688894,1.8073 -3.900647,2.74058 -1.211753,0.93328 -3.434253,2.62904 -4.938889,3.76836 -1.504636,1.13932 -3.767581,2.97618 -5.028761,4.08191 -3.67527,3.22227 -5.12543,3.721716 -7.01514,2.41613 -0.61503,-0.42491 3.67559,-5.21366 7.17171,-8.00432 6.120399,-4.8854 21.07751,-15.39498 21.909966,-15.39498 0.09487,0 0.831985,-0.41632 1.638037,-0.92516 2.190029,-1.3825 10.651457,-5.70736 13.846245,-7.07717 1.541212,-0.66082 3.287462,-1.42415 3.880555,-1.69628 15.560015,-7.13953 29.943926,-4.69976 34.300909,5.81806 3.916211,9.45379 -10.594962,25.78544 -26.165289,29.447796 -2.146928,0.50498 -2.266339,0.90819 -2.248986,7.59386 0.01118,4.30634 -0.610189,17.38641 -0.967811,20.37292 -0.179433,1.49847 -2.075945,2.28917 -2.77555,1.15718 z m 190.65178,-8.83231 c -2.38793,-0.40456 -5.94531,-1.9292 -8.65716,-3.71036 -2.75356,-1.80854 -2.80841,-1.82263 -3.40112,-0.87354 -0.62944,1.00789 -0.97647,0.87271 -0.97647,-0.38036 0,-2.57563 -2.90627,-4.23594 -5.0094,-2.8618 -11.84257,7.73775 -27.448324,9.70701 -26.004604,3.2815 2.15339,-9.58406 14.660904,-14.13168 25.641154,-9.32289 4.13122,1.80926 4.46637,0.90962 5.14971,-13.823386 0.43264,-9.328 0.47408,-9.54601 1.91934,-10.0955 3.29618,-1.2532 3.36405,-0.82342 2.20126,13.93846 -0.21234,2.695706 -0.30105,4.986306 -0.19714,5.090226 0.10392,0.10391 2.92542,-2.583596 6.27001,-5.972246 5.41424,-5.48558 7.71281,-8.07801 11.37273,-12.82668 0.58208,-0.75524 1.31771,-1.64379 1.63473,-1.97456 9.7126,-10.13373 7.33426,-22.69871 -4.99478,-26.38792 -6.89203,-2.0623 -11.60146,-2.08075 -19.60943,-0.0768 -20.134924,5.03856 -35.428104,25.66123 -25.654044,34.59417 1.84054,1.68216 2.09969,2.19993 1.66633,3.32925 -0.82205,2.14225 -6.09371,-1.83888 -7.96908,-6.01821 -0.87451,-1.94888 -1.10478,-7.18573 -0.38041,-8.65154 0.22385,-0.45299 0.76888,-1.85549 1.21117,-3.11667 1.74167,-4.96634 7.62552,-12.12916 12.16026,-14.80353 1.13925,-0.67187 2.518524,-1.64496 3.065064,-2.16241 2.65168,-2.51062 10.4637,-5.85249 17.35074,-7.4224 3.06902,-0.69958 13.14122,-0.60196 15.69862,0.15216 21.26823,6.27153 23.71178,19.55272 6.86065,37.28896 -1.0139,1.06715 -4.00037,4.26209 -6.63659,7.09987 -4.23266,4.556246 -7.10834,7.326946 -10.60328,10.216186 -2.13163,1.7622 -2.32068,2.05371 -2.3256,3.58602 -0.003,0.82462 -0.0975,1.84475 -0.21071,2.26697 -0.53412,1.99142 9.32305,6.56049 14.15339,6.56049 4.34859,0 8.41741,-1.45207 9.38537,-3.34942 3.42299,-6.70962 8.27124,-9.05151 11.45519,-5.53329 0.57632,0.63682 0.63291,0.62619 1.86974,-0.35126 1.60001,-1.26446 4.17318,-2.15113 6.2427,-2.15113 4.19249,0 4.32585,4.37574 0.20274,6.65196 -3.32897,1.83779 -0.90734,3.95923 2.65793,2.32844 1.04191,-0.47658 2.10449,-0.86651 2.3613,-0.86651 0.34847,0 0.42341,-0.45288 0.29541,-1.78507 -0.26234,-2.73017 5.01352,-7.57166 7.44473,-6.83181 2.92329,0.8896 2.07057,4.25768 -1.74204,6.88083 -3.86361,2.65823 -0.85117,5.80279 3.50225,3.65585 2.67022,-1.31686 3.09942,-1.72373 3.22319,-3.05547 0.30141,-3.24295 2.74468,-5.54237 5.36649,-5.05052 1.32386,0.24836 1.64923,1.47512 0.6182,2.33081 -0.71901,0.59672 -2.01899,3.35188 -1.83789,3.89518 0.0851,0.25528 0.6093,0.006 1.35624,-0.64487 1.79017,-1.55999 3.43939,-2.30265 4.76879,-2.14746 0.93005,0.10859 1.2358,-0.0194 1.51606,-0.63447 1.89091,-4.15011 5.9284,-6.72077 7.51766,-4.7865 0.82058,0.99873 0.82058,0.99873 1.81966,0.26459 1.33822,-0.98335 5.97033,-1.09057 6.15773,-0.14254 0.0808,0.4086 -0.35332,0.80199 -1.40327,1.2717 -0.83611,0.37406 -1.82977,1.02854 -2.20813,1.45442 -1.39773,1.57328 -0.48961,4.82762 1.10848,3.97234 1.04876,-0.56128 3.36085,-0.65795 3.53985,-0.14801 0.82166,2.34072 -6.25662,3.79894 -8.03558,1.65543 -0.37157,-0.44771 -0.48528,-0.43593 -0.86992,0.0901 -0.60271,0.82426 -2.9871,0.26261 -3.53022,-0.83154 -0.36298,-0.73126 -0.41885,-0.70032 -1.32654,0.73442 -1.77196,2.80086 -3.23952,3.45735 -5.14219,2.30027 -1.1571,-0.70368 -1.1571,-0.70368 -2.57515,0.41945 -1.89825,1.50344 -4.52421,1.8255 -5.72055,0.7016 -0.80628,-0.75746 -0.80628,-0.75746 -1.47433,-0.0193 -3.24688,3.58776 -10.02305,3.41865 -11.4708,-0.28627 -0.30223,-0.77344 -1.03319,-1.11062 -1.03319,-0.4766 0,2.19729 -8.47504,2.36127 -9.31201,0.18018 -0.19361,-0.50455 -0.35053,-0.45195 -1.11617,0.37419 -1.58201,1.70701 -3.58443,0.72409 -3.75294,-1.84219 -0.13341,-2.03178 -0.62859,-2.2216 -1.51271,-0.57988 -1.72168,3.19695 -6.15087,5.04376 -8.46303,3.52878 -0.84191,-0.55165 -0.96627,-0.53113 -2.73825,0.45186 -2.98932,1.65829 -6.70685,2.15358 -10.87014,1.44825 z m -34.825014,-3.5081 c 2.15149,-0.35239 2.866434,-0.63057 7.855544,-3.05646 7.74147,-3.7642 7.90351,-3.97026 4.11449,-5.23212 -7.44985,-2.48103 -13.160974,-0.85087 -17.235854,4.91973 -2.61719,3.7063 -1.4303,4.46562 5.26582,3.36885 z m 54.167334,-3.36885 c 2.84138,-2.33573 3.12767,-3.16604 1.36806,-3.96777 -1.31973,-0.60131 -5.17013,4.19536 -5.17013,6.44073 0,0.36815 1.65676,-0.70945 3.80207,-2.47296 z m 9.59438,-0.52269 c 1.67518,-1.19283 1.64101,-2.22624 -0.0373,-1.12744 -0.7506,0.49143 -1.36472,1.10344 -1.36472,1.36001 0,0.63042 0.24777,0.58932 1.402,-0.23257 z m -98.655478,4.55768 c -0.648321,-0.19541 -1.860515,-1.16717 -2.87298,-2.30313 -1.751454,-1.96509 -1.751454,-1.96509 -2.829705,-1.40751 -2.054486,1.06242 -5.18892,0.052 -6.445515,-2.07777 -0.798622,-1.35355 -1.557217,-1.3314 -1.214159,0.0355 0.731944,2.91629 -4.095199,3.41941 -5.832785,0.60793 -1.119982,-1.81217 -0.645351,-11.82536 0.599182,-12.64081 2.917398,-1.911546 4.573503,0.80551 3.538626,5.80558 -0.572283,2.76502 -0.45623,3.1653 0.921223,3.17735 0.339548,0.003 0.617361,0.16416 0.617361,0.35818 0,0.82547 1.034302,0.24742 1.901179,-1.06252 3.723259,-5.62623 11.948778,-4.28616 11.344318,1.84816 -0.236894,2.40408 -0.236894,2.40408 1.284499,3.09453 2.83424,1.28625 4.02666,0.85607 2.9325,-1.05794 -1.28663,-2.25074 0.12435,-6.43691 2.23786,-6.6394 1.95623,-0.18742 2.64341,0.73573 2.41717,3.2472 -0.34832,3.86682 0.70877,4.6756 2.79055,2.13506 2.18595,-2.66766 4.24283,-3.33487 5.3012,-1.7196 1.60831,2.4546 -4.65659,9.40135 -7.94621,8.81105 -1.41465,-0.25385 -2.00813,-0.25723 -5.32973,-0.0304 -1.26118,0.0861 -2.797745,0.004 -3.414584,-0.18144 z m -4.798921,-7.61002 c 0.2179,-0.66482 -0.942848,-1.54025 -2.042252,-1.54025 -1.098568,0 -1.562488,1.48165 -0.592162,1.89122 0.734606,0.31008 2.494601,0.0756 2.634414,-0.35097 z m 158.578449,5.86918 c -4.37804,-0.65579 -4.93673,-3.59004 -1.47547,-7.74916 1.25143,-1.50375 1.74664,-2.40325 1.74664,-3.1726 0,-0.86181 0.1567,-1.08482 0.79375,-1.12968 3.29074,-0.23173 4.0417,1.70353 1.6754,4.31756 -3.65627,4.03905 -3.44559,6.25786 0.4829,5.08576 7.60066,-2.26772 11.15906,-3.03345 11.15906,-2.40131 0,0.47747 -1.54352,1.87333 -2.07151,1.87333 -0.2412,0 -1.15036,0.39741 -2.02037,0.88312 -3.43873,1.91983 -7.1945,2.75671 -10.2904,2.29298 z M 152.9156,103.40188 c -1.47422,-1.47422 3.18295,-6.068546 6.1906,-6.107066 1.95339,-0.025 1.4317,1.52238 -1.25229,3.714466 -3.0303,2.47492 -4.26014,3.07077 -4.93831,2.3926 z m 15.71142,-0.86935 c -2.11837,-0.61076 -1.76267,-2.42324 0.47556,-2.42324 1.78704,0 2.86026,1.39034 1.85172,2.39888 -0.48448,0.48448 -0.72273,0.48697 -2.32728,0.0243 z m 34.00862,-3.318406 c -1.21722,-1.21722 -0.27959,-2.98539 1.58309,-2.98539 1.46107,0 2.17667,1.48781 1.17721,2.44753 -1.02412,0.98341 -2.10428,1.19388 -2.7603,0.53786 z M 43.672073,97.640384 c -5.019407,-0.29616 -7.122619,-2.6519 -3.659501,-4.09888 1.534156,-0.64101 11.396673,0.17521 13.164739,1.08951 3.698282,1.91246 -1.296251,3.49373 -9.505238,3.00937 z"
       id="path272" /></g></svg>
